<?xml version="1.0" encoding="UTF-8"?>
<svg width="16px" height="20px" viewBox="0 0 16 20" version="1.1" xmlns="http://www.w3.org/2000/svg" xmlns:xlink="http://www.w3.org/1999/xlink">
    <!-- Generator: Sketch 64 (93537) - https://sketch.com -->
    <title>apple-app-store</title>
    <desc>Created with Sketch.</desc>
    <g id="Page-1" stroke="none" stroke-width="1" fill="none" fill-rule="evenodd">
        <g id="메인" transform="translate(-451.000000, -505.000000)" fill="#000000" fill-rule="nonzero">
            <g id="apple-app-store" transform="translate(451.000000, 505.000000)">
                <path d="M8.82804203,1.70792838 C10.1175726,0.00828606261 11.9103284,0 11.9103284,0 C11.9103284,0 12.1769977,1.59795267 10.8959144,3.1372903 C9.528037,4.7809614 7.97325569,4.5120029 7.97325569,4.5120029 C7.97325569,4.5120029 7.681309,3.21931265 8.82804203,1.70792838 Z M8.13726814,5.63136291 C8.80066901,5.63136291 10.031907,4.71944464 11.6345347,4.71944464 C14.3931809,4.71944464 15.4784294,6.6824032 15.4784294,6.6824032 C15.4784294,6.6824032 13.3558755,7.76761947 13.3558755,10.4008463 C13.3558755,13.3713514 16,14.3950832 16,14.3950832 C16,14.3950832 14.1516599,19.5974731 11.6550725,19.5974731 C10.5084039,19.5974731 9.61692678,18.8247413 8.40874147,18.8247413 C7.1775035,18.8247413 5.95568004,19.626297 5.15989562,19.626297 C2.88013219,19.626297 0,14.6913502 0,10.7244219 C0,6.82152522 2.43784345,4.77412621 4.72444207,4.77412621 C6.21093591,4.77412621 7.36447189,5.63136291 8.13726814,5.63136291 Z" id="Shape"></path>
            </g>
        </g>
    </g>
</svg>