<?xml version="1.0" encoding="UTF-8"?>
<svg width="50px" height="50px" viewBox="0 0 50 50" version="1.1" xmlns="http://www.w3.org/2000/svg" xmlns:xlink="http://www.w3.org/1999/xlink">
    <!-- Generator: Sketch 64 (93537) - https://sketch.com -->
    <title>business-and-finance</title>
    <desc>Created with Sketch.</desc>
    <g id="Page-1" stroke="none" stroke-width="1" fill="none" fill-rule="evenodd">
        <g id="메인" transform="translate(-250.000000, -1975.000000)" fill-rule="nonzero">
            <g id="Group-6" transform="translate(250.000000, 1702.000000)">
                <g id="business-and-finance" transform="translate(0.000000, 273.000000)">
                    <path d="M40.625,50 L9.375,50 C4.196875,50 0,45.803125 0,40.625 L0,9.375 C0,4.196875 4.196875,0 9.375,0 L40.625,0 C45.803125,0 50,4.196875 50,9.375 L50,40.625 C50,45.803125 45.803125,50 40.625,50 Z" id="Path" fill="#46D996"></path>
                    <g id="Group" transform="translate(12.500000, 23.925781)" fill="#FFFFFF">
                        <circle id="Oval" cx="5.7296875" cy="3.15703125" r="3.125"></circle>
                        <path d="M8.59375,8.36640625 L2.8640625,8.36640625 C1.284375,8.36640625 0,9.65078125 0,11.2304688 L0,12.7929688 C0,13.2242188 0.35,13.5742188 0.78125,13.5742188 L10.6765625,13.5742188 C11.1078125,13.5742188 11.4578125,13.2242188 11.4578125,12.7929688 L11.4578125,11.2304688 C11.4578125,9.65078125 10.1734375,8.36640625 8.59375,8.36640625 Z" id="Path"></path>
                        <circle id="Oval" cx="19.2703125" cy="3.15703125" r="3.125"></circle>
                        <path d="M22.1359375,8.36640625 L16.40625,8.36640625 C14.8265625,8.36640625 13.5421875,9.65078125 13.5421875,11.2304688 L13.5421875,12.7929688 C13.5421875,13.2242188 13.8921875,13.5742188 14.3234375,13.5742188 L24.21875,13.5742188 C24.65,13.5742188 25,13.2242188 25,12.7929688 L25,11.2304688 C25,9.65078125 23.715625,8.36640625 22.1359375,8.36640625 Z" id="Path"></path>
                    </g>
                    <path d="M27.125,23.0953125 L27.125,23.8453125 C27.125,24.48125 26.6046875,25.0015625 25.9578125,25.0015625 L24.040625,25.0015625 C23.478125,25.0015625 22.8734375,24.584375 22.8734375,23.6578125 L22.8734375,23.0953125 L27.125,23.0953125 Z" id="Path" fill-opacity="0.6" fill="#FFFFFF"></path>
                    <path d="M29.6875,17.1578125 C29.6875,18.5640625 29.0625,19.8765625 27.96875,20.7625 C27.53125,21.1171875 27.25,21.575 27.15625,22.0546875 L22.8546875,22.0546875 C22.78125,21.5859375 22.521875,21.1484375 22.09375,20.815625 C20.9375,19.909375 20.28125,18.5453125 20.3125,17.065625 C20.3640625,14.5859375 22.4375,12.534375 24.9265625,12.503125 C26.1875,12.471875 27.3953125,12.9609375 28.3015625,13.8578125 C29.1984375,14.73125 29.6875,15.9078125 29.6875,17.1578125 Z" id="Path" fill-opacity="0.6" fill="#FFFFFF"></path>
                </g>
            </g>
        </g>
    </g>
</svg>