<?xml version="1.0" encoding="UTF-8"?>
<svg width="50px" height="50px" viewBox="0 0 50 50" version="1.1" xmlns="http://www.w3.org/2000/svg" xmlns:xlink="http://www.w3.org/1999/xlink">
    <!-- Generator: Sketch 64 (93537) - https://sketch.com -->
    <title>3064106</title>
    <desc>Created with Sketch.</desc>
    <g id="Page-1" stroke="none" stroke-width="1" fill="none" fill-rule="evenodd">
        <g id="메인" transform="translate(-570.000000, -1975.000000)" fill-rule="nonzero">
            <g id="Group-6" transform="translate(250.000000, 1702.000000)">
                <g id="3064106" transform="translate(320.000000, 273.000000)">
                    <path d="M40.625,50 L9.375,50 C4.196875,50 0,45.803125 0,40.625 L0,9.375 C0,4.196875 4.196875,0 9.375,0 L40.625,0 C45.803125,0 50,4.196875 50,9.375 L50,40.625 C50,45.803125 45.803125,50 40.625,50 Z" id="Path" fill="#31ACFA"></path>
                    <path d="M36.9703125,14.4015625 L31.5015625,12.5421875 C31.3390625,12.4859375 31.1625,12.4859375 30.9984375,12.5421875 L25.5296875,14.4015625 C25.2125,14.509375 25,14.80625 25,15.1421875 L25,19.328125 C25,24.4375 30.7015625,26.91875 30.9453125,27.0234375 C31.04375,27.0640625 31.146875,27.0859375 31.25,27.0859375 C31.353125,27.0859375 31.4578125,27.065625 31.5546875,27.0234375 C31.7984375,26.91875 37.5,24.4359375 37.5,19.3265625 L37.5,15.1421875 C37.5,14.80625 37.2875,14.509375 36.9703125,14.4015625 L36.9703125,14.4015625 Z M34.6734375,18.3515625 L31.809375,21.996875 C31.634375,22.2203125 31.375,22.3625 31.0921875,22.390625 C31.059375,22.39375 31.0234375,22.3953125 30.990625,22.3953125 C30.74375,22.3953125 30.5015625,22.3078125 30.3125,22.1453125 L28.4890625,20.5828125 C28.0515625,20.2078125 28,19.5515625 28.3765625,19.1140625 C28.7515625,18.678125 29.409375,18.6265625 29.8453125,19.0015625 L30.84375,19.85625 L33.0375,17.065625 C33.3921875,16.6140625 34.046875,16.534375 34.5,16.890625 C34.95,17.2453125 35.0296875,17.9 34.6734375,18.3515625 L34.6734375,18.3515625 Z" id="Shape" fill="#FFFFFF"></path>
                    <g id="Group" transform="translate(12.500000, 24.902344)" fill="#FFFFFF" fill-opacity="0.6">
                        <path d="M0.5109375,0.09921875 C0.228125,0.10546875 0,0.33671875 0,0.62109375 L0,10.2539063 C0,10.3976563 0.1171875,10.5148438 0.2609375,10.5148438 L2.73125,10.5148438 C2.9640625,10.5148438 3.16875,10.3601563 3.2328125,10.1367188 L5.5375,2.01328125 C5.6859375,1.48828125 5.4046875,0.93671875 4.8921875,0.75078125 C3.946875,0.40546875 2.5,0.06640625 0.5109375,0.09921875 L0.5109375,0.09921875 Z" id="Path"></path>
                        <path d="M22.9171875,5.82734375 C20.834375,5.82734375 16.6671875,8.46484375 14.5828125,8.46484375 C12.5,8.46484375 10.15625,6.86953125 10.15625,6.86953125 C10.15625,6.86953125 12.9625,7.38984375 14.5828125,7.38984375 C16.2046875,7.38984375 16.665625,6.83671875 16.665625,6.08828125 C16.665625,4.26484375 13.56875,3.98203125 12.003125,3.74453125 C10.465625,2.88828125 9.6671875,2.21171875 7.1203125,1.99609375 C7.1046875,2.14453125 7.08125,2.29140625 7.040625,2.43984375 L4.9484375,9.81484375 C7.31875,10.8929687 11.4,12.6007813 13.5421875,12.6007813 C16.6671875,12.6007813 25.0015625,8.43359375 25.0015625,7.39296875 C25,6.34765625 23.959375,5.82734375 22.9171875,5.82734375 L22.9171875,5.82734375 Z" id="Path"></path>
                    </g>
                </g>
            </g>
        </g>
    </g>
</svg>