<?xml version="1.0" encoding="UTF-8"?>
<svg width="50px" height="50px" viewBox="0 0 50 50" version="1.1" xmlns="http://www.w3.org/2000/svg" xmlns:xlink="http://www.w3.org/1999/xlink">
    <!-- Generator: Sketch 64 (93537) - https://sketch.com -->
    <title>sensor</title>
    <desc>Created with Sketch.</desc>
    <g id="Page-1" stroke="none" stroke-width="1" fill="none" fill-rule="evenodd">
        <g id="메인" transform="translate(-250.000000, -1702.000000)" fill-rule="nonzero">
            <g id="Group-6" transform="translate(250.000000, 1702.000000)">
                <g id="sensor">
                    <path d="M40.625,50 L9.375,50 C4.196875,50 0,45.803125 0,40.625 L0,9.375 C0,4.196875 4.196875,0 9.375,0 L40.625,0 C45.803125,0 50,4.196875 50,9.375 L50,40.625 C50,45.803125 45.803125,50 40.625,50 Z" id="Path" fill="#31ACFA"></path>
                    <path d="M35.4171875,26.0421875 C34.5453125,26.0421875 33.7984375,26.58125 33.4890625,27.34375 L31.25,27.34375 L31.25,22.65625 L33.4890625,22.65625 C33.7984375,23.41875 34.5453125,23.9578125 35.4171875,23.9578125 C36.565625,23.9578125 37.5,23.0234375 37.5,21.875 C37.5,20.7265625 36.565625,19.7921875 35.4171875,19.7921875 C34.5453125,19.7921875 33.7984375,20.33125 33.4890625,21.09375 L31.1390625,21.09375 C30.8546875,20.0015625 29.9984375,19.1453125 28.90625,18.8609375 L28.90625,16.5109375 C29.66875,16.2015625 30.2078125,15.4546875 30.2078125,14.5828125 C30.2078125,13.434375 29.2734375,12.5 28.125,12.5 C26.9765625,12.5 26.0421875,13.434375 26.0421875,14.5828125 C26.0421875,15.4546875 26.5828125,16.2015625 27.34375,16.5109375 L27.34375,18.75 L22.65625,18.75 L22.65625,16.5109375 C23.41875,16.2015625 23.9578125,15.4546875 23.9578125,14.5828125 C23.9578125,13.434375 23.0234375,12.5 21.875,12.5 C20.7265625,12.5 19.7921875,13.434375 19.7921875,14.5828125 C19.7921875,15.4546875 20.3328125,16.2015625 21.09375,16.5109375 L21.09375,18.8609375 C20.0015625,19.1453125 19.1453125,20.0015625 18.8609375,21.09375 L16.5109375,21.09375 C16.2015625,20.33125 15.4546875,19.7921875 14.5828125,19.7921875 C13.434375,19.7921875 12.5,20.7265625 12.5,21.875 C12.5,23.0234375 13.434375,23.9578125 14.5828125,23.9578125 C15.4546875,23.9578125 16.2015625,23.41875 16.5109375,22.65625 L18.75,22.65625 L18.75,27.34375 L16.5109375,27.34375 C16.2015625,26.58125 15.4546875,26.0421875 14.5828125,26.0421875 C13.434375,26.0421875 12.5,26.9765625 12.5,28.125 C12.5,29.2734375 13.434375,30.2078125 14.5828125,30.2078125 C15.4546875,30.2078125 16.2015625,29.66875 16.5109375,28.90625 L18.8609375,28.90625 C19.1453125,29.9984375 20.0015625,30.8546875 21.09375,31.1390625 L21.09375,33.4890625 C20.33125,33.7984375 19.7921875,34.5453125 19.7921875,35.4171875 C19.7921875,36.565625 20.7265625,37.5 21.875,37.5 C23.0234375,37.5 23.9578125,36.565625 23.9578125,35.4171875 C23.9578125,34.5453125 23.4171875,33.7984375 22.65625,33.4890625 L22.65625,31.25 L27.34375,31.25 L27.34375,33.4890625 C26.58125,33.7984375 26.0421875,34.5453125 26.0421875,35.4171875 C26.0421875,36.565625 26.9765625,37.5 28.125,37.5 C29.2734375,37.5 30.2078125,36.565625 30.2078125,35.4171875 C30.2078125,34.5453125 29.6671875,33.7984375 28.90625,33.4890625 L28.90625,31.1390625 C29.9984375,30.8546875 30.8546875,29.9984375 31.1390625,28.90625 L33.4890625,28.90625 C33.7984375,29.66875 34.5453125,30.2078125 35.4171875,30.2078125 C36.565625,30.2078125 37.5,29.2734375 37.5,28.125 C37.5,26.9765625 36.565625,26.0421875 35.4171875,26.0421875 Z M29.1671875,28.125 C29.1671875,28.7 28.7,29.1671875 28.125,29.1671875 L21.875,29.1671875 C21.3,29.1671875 20.8328125,28.7 20.8328125,28.125 L20.8328125,21.875 C20.8328125,21.3 21.3,20.8328125 21.875,20.8328125 L28.125,20.8328125 C28.7,20.8328125 29.1671875,21.3 29.1671875,21.875 L29.1671875,28.125 Z" id="Shape" fill="#FFFFFF"></path>
                </g>
            </g>
        </g>
    </g>
</svg>