<?xml version="1.0" encoding="UTF-8"?>
<svg width="50px" height="50px" viewBox="0 0 50 50" version="1.1" xmlns="http://www.w3.org/2000/svg" xmlns:xlink="http://www.w3.org/1999/xlink">
    <!-- Generator: Sketch 64 (93537) - https://sketch.com -->
    <title>2921191 copy</title>
    <desc>Created with Sketch.</desc>
    <g id="Page-1" stroke="none" stroke-width="1" fill="none" fill-rule="evenodd">
        <g id="메인" transform="translate(-570.000000, -1702.000000)" fill-rule="nonzero">
            <g id="Group-6" transform="translate(250.000000, 1702.000000)">
                <g id="2921191-copy" transform="translate(320.000000, 0.000000)">
                    <path d="M40.625,50 L9.375,50 C4.196875,50 0,45.803125 0,40.625 L0,9.375 C0,4.196875 4.196875,0 9.375,0 L40.625,0 C45.803125,0 50,4.196875 50,9.375 L50,40.625 C50,45.803125 45.803125,50 40.625,50 Z" id="Path" fill="#46D996"></path>
                    <path d="M25.2609375,14.5828125 L24.115625,14.5828125 C23.7703125,13.3859375 22.6671875,12.5 21.3546875,12.5 C20.0421875,12.5 18.9375,13.3859375 18.59375,14.5828125 L17.4484375,14.5828125 C17.021875,14.5828125 16.6671875,14.9375 16.6671875,15.3640625 L16.6671875,16.9265625 C16.6671875,17.9265625 17.490625,18.75 18.490625,18.75 L24.21875,18.75 C25.21875,18.75 26.0421875,17.9265625 26.0421875,16.9265625 L26.0421875,15.3640625 C26.0421875,14.9375 25.6875,14.5828125 25.2609375,14.5828125 Z" id="Path" fill="#FFFFFF"></path>
                    <path d="M27.34375,15.625 L27.0828125,15.625 L27.0828125,16.9265625 C27.0828125,18.509375 25.8015625,19.790625 24.21875,19.790625 L18.4890625,19.790625 C16.90625,19.790625 15.625,18.509375 15.625,16.9265625 L15.625,15.625 L15.3640625,15.625 C13.78125,15.625 12.5,16.90625 12.5,18.4890625 L12.5,31.509375 C12.5,33.09375 13.78125,34.375 15.3640625,34.375 L22.915625,34.375 L22.915625,30.7296875 L16.40625,30.7296875 C15.9796875,30.7296875 15.625,30.375 15.625,29.9484375 C15.625,29.521875 15.9796875,29.1671875 16.40625,29.1671875 L23.1046875,29.1671875 C23.3859375,28.34375 24.0109375,27.6875 24.8125,27.34375 L16.40625,27.34375 C15.9796875,27.34375 15.625,26.9890625 15.625,26.5625 C15.625,26.1359375 15.9796875,25.78125 16.40625,25.78125 L26.3015625,25.78125 C26.728125,25.78125 27.0828125,26.1359375 27.0828125,26.5625 C27.0828125,26.7609375 27.009375,26.9484375 26.875,27.0828125 L27.0828125,27.0828125 C27.3953125,27.0828125 27.6875,27.1453125 27.96875,27.228125 C28,27.1859375 28.0421875,27.1453125 28.0625,27.1140625 C28.1046875,24.6875 29.2390625,23.75 30.2078125,23.40625 L30.2078125,18.4890625 C30.2078125,16.90625 28.9265625,15.625 27.34375,15.625 L27.34375,15.625 Z M26.3015625,23.9578125 L16.40625,23.9578125 C15.9796875,23.9578125 15.625,23.603125 15.625,23.1765625 C15.625,22.75 15.9796875,22.3953125 16.40625,22.3953125 L26.3015625,22.3953125 C26.728125,22.3953125 27.0828125,22.75 27.0828125,23.1765625 C27.0828125,23.6046875 26.7296875,23.9578125 26.3015625,23.9578125 Z" id="Shape" fill-opacity="0.6" fill="#FFFFFF"></path>
                    <g id="Group" transform="translate(25.000000, 25.195312)" fill="#FFFFFF">
                        <path d="M2.0828125,12.3046875 L1.040625,12.3046875 C0.465625,12.3046875 -5.55111512e-15,11.8390625 -5.55111512e-15,11.2625 L-5.55111512e-15,5.0125 C-5.55111512e-15,4.4375 0.465625,3.9703125 1.0421875,3.9703125 L2.084375,3.9703125 C2.659375,3.9703125 3.1265625,4.4359375 3.1265625,5.0125 L3.1265625,11.2625 C3.125,11.8390625 2.659375,12.3046875 2.0828125,12.3046875 L2.0828125,12.3046875 Z" id="Path"></path>
                        <path d="M12.5,6.48125 C12.5,5.0953125 11.375,3.9703125 9.9890625,3.9703125 L7.915625,3.9703125 C8.0296875,3.60625 8.134375,3.115625 8.134375,2.54375 C8.134375,0.85625 7.228125,0.0859375 6.3953125,0.0859375 C5.1453125,0.0859375 5.1453125,1.41875 5.1453125,2.065625 C5.1453125,2.8578125 4.4578125,3.565625 3.90625,4.003125 C4.0734375,4.3046875 4.1671875,4.6484375 4.1671875,5.0140625 L4.1671875,11.2640625 C4.1671875,11.3578125 4.15625,11.4515625 4.146875,11.5453125 C5.053125,11.9203125 6.5015625,12.30625 8.584375,12.30625 L9.375,12.30625 C10.625,12.30625 11.71875,11.4 11.90625,10.2015625 L11.8640625,10.190625 C12.375,9.128125 12.5,6.5125 12.5,6.48125 L12.5,6.48125 Z" id="Path"></path>
                    </g>
                </g>
            </g>
        </g>
    </g>
</svg>