<?xml version="1.0" encoding="UTF-8"?>
<svg width="50px" height="50px" viewBox="0 0 50 50" version="1.1" xmlns="http://www.w3.org/2000/svg" xmlns:xlink="http://www.w3.org/1999/xlink">
    <!-- Generator: Sketch 64 (93537) - https://sketch.com -->
    <title>1827494</title>
    <desc>Created with Sketch.</desc>
    <g id="Page-1" stroke="none" stroke-width="1" fill="none" fill-rule="evenodd">
        <g id="메인" transform="translate(-890.000000, -1702.000000)" fill-rule="nonzero">
            <g id="Group-6" transform="translate(250.000000, 1702.000000)">
                <g id="1827494" transform="translate(640.000000, 0.000000)">
                    <path d="M40.625,50 L9.375,50 C4.19692988,50 0,45.8030701 0,40.625 L0,9.375 C0,4.19692988 4.19692988,0 9.375,0 L40.625,0 C45.8030701,0 50,4.19692988 50,9.375 L50,40.625 C50,45.8030701 45.8030701,50 40.625,50 Z" id="Path" fill="#31ACFA"></path>
                    <g id="Group" transform="translate(16.015625, 17.089844)" fill="#FFFFFF" fill-opacity="0.6">
                        <path d="M9.70001221,16.8289185 C9.1251373,16.8289185 8.65783691,16.3631439 8.65783691,15.7867432 L8.65783691,14.2242432 C8.65783691,13.6493683 9.12361143,13.1820679 9.70001221,13.1820679 C10.2748871,13.1820679 10.7421875,13.6478424 10.7421875,14.2242432 L10.7421875,15.7867432 C10.7421875,16.3631439 10.276413,16.8289185 9.70001221,16.8289185 Z" id="Path"></path>
                        <path d="M2.66876221,8.23516846 L1.10626221,8.23516846 C0.531387305,8.23516846 0.0640869141,7.76939395 0.0640869141,7.19299316 C0.0640869141,6.61811826 0.529861426,6.15081787 1.10626221,6.15081787 L2.66876221,6.15081787 C3.24363711,6.15081787 3.7109375,6.61659238 3.7109375,7.19299316 C3.7109375,7.76939395 3.24516299,8.23516846 2.66876221,8.23516846 Z" id="Path"></path>
                        <path d="M4.72793574,3.26309199 C4.46090703,3.26309199 4.1954041,3.16162109 3.99208066,2.9586792 L2.88734434,1.85394287 C2.4810791,1.44767764 2.4810791,0.788116406 2.88734434,0.380325293 C3.29360957,-0.0274658203 3.9531708,-0.0259399414 4.36096191,0.380325293 L5.46569824,1.48506162 C5.87196348,1.89132695 5.87196348,2.55088809 5.46569824,2.9586792 C5.26084902,3.16162109 4.99534609,3.26309199 4.72793574,3.26309199 Z" id="Path"></path>
                        <path d="M15.7779693,14.3131256 C15.5109405,14.3131256 15.2454376,14.2116547 15.0421143,14.0087128 L13.9373779,12.9039765 C13.5311127,12.4977111 13.5311127,11.83815 13.9373779,11.4303589 C14.3436432,11.0225678 15.0032043,11.0240937 15.4109955,11.4303589 L16.5157318,12.5350952 C16.9219971,12.9413604 16.9219971,13.6009217 16.5157318,14.0087128 C16.3108826,14.2116547 16.0438537,14.3131256 15.7779693,14.3131256 Z" id="Path"></path>
                        <path d="M3.62358096,14.3131256 C3.3561707,14.3131256 3.09066777,14.2116547 2.88734434,14.0087128 C2.4810791,13.6024475 2.4810791,12.9428863 2.88734434,12.5350952 L3.99208066,11.4303589 C4.3983459,11.0240937 5.05790713,11.0240937 5.46569824,11.4303589 C5.87348936,11.8366241 5.87196348,12.4961854 5.46569824,12.9039765 L4.36096191,14.0087128 C4.1561127,14.2116547 3.89060977,14.3131256 3.62358096,14.3131256 Z" id="Path"></path>
                    </g>
                    <path d="M25.7156372,11.7843628 C25.2841949,11.7843628 24.9343872,12.134552 24.9343872,12.5656128 L24.9343872,24.2843628 C24.9343872,24.7158051 25.2841949,25.0656128 25.7156372,25.0656128 L37.4343872,25.0656128 C37.865448,25.0656128 38.2156372,24.7158051 38.2156372,24.2843628 C38.2156372,17.3904419 32.6095581,11.7843628 25.7156372,11.7843628 Z M32.529831,18.9437866 L31.4250946,20.0485229 C31.2217713,20.2514648 30.9547424,20.3529357 30.6892395,20.3529357 C30.4233551,20.3529357 30.1563263,20.2514648 29.9530029,20.0485229 C29.5467377,19.6422577 29.5467377,18.9826965 29.9530029,18.5749054 L31.0577393,17.470169 C31.4640045,17.0639038 32.1235656,17.0639038 32.5313568,17.470169 C32.9391479,17.8764344 32.9360962,18.5359955 32.529831,18.9437866 Z" id="Shape" fill="#FFFFFF"></path>
                </g>
            </g>
        </g>
    </g>
</svg>