<?xml version="1.0" encoding="UTF-8"?>
<svg width="50px" height="50px" viewBox="0 0 50 50" version="1.1" xmlns="http://www.w3.org/2000/svg" xmlns:xlink="http://www.w3.org/1999/xlink">
    <!-- Generator: Sketch 64 (93537) - https://sketch.com -->
    <title>electronics (1)</title>
    <desc>Created with Sketch.</desc>
    <g id="Page-1" stroke="none" stroke-width="1" fill="none" fill-rule="evenodd">
        <g id="메인" transform="translate(-890.000000, -1975.000000)" fill-rule="nonzero">
            <g id="Group-6" transform="translate(250.000000, 1702.000000)">
                <g id="electronics-(1)" transform="translate(640.000000, 273.000000)">
                    <g id="BG" fill="#46D996">
                        <path d="M40.625,50 L9.375,50 C4.196875,50 0,45.803125 0,40.625 L0,9.375 C0,4.196875 4.196875,0 9.375,0 L40.625,0 C45.803125,0 50,4.196875 50,9.375 L50,40.625 C50,45.803125 45.803125,50 40.625,50 Z" id="Path"></path>
                    </g>
                    <g id="bold" transform="translate(12.500000, 12.500000)" fill="#FFFFFF">
                        <path d="M22.1359375,-8.32667268e-15 L7.8125,-8.32667268e-15 C6.2328125,-8.32667268e-15 4.9484375,1.284375 4.9484375,2.8640625 L4.9484375,4.165625 L7.03125,4.165625 L7.03125,3.384375 C7.03125,2.665625 7.615625,2.0828125 8.3328125,2.0828125 L21.6140625,2.0828125 C22.3328125,2.0828125 22.915625,2.6671875 22.915625,3.384375 L22.915625,21.6140625 C22.915625,22.3328125 22.33125,22.915625 21.6140625,22.915625 L13.534375,22.915625 C13.5234375,23.678125 13.309375,24.384375 12.959375,24.9984389 L22.134375,24.9984389 C23.715625,25 25,23.715625 25,22.1359375 L25,2.8640625 C25,1.284375 23.715625,-8.32667268e-15 22.1359375,-8.32667268e-15 L22.1359375,-8.32667268e-15 Z" id="Path" fill-opacity="0.6"></path>
                        <path d="M9.4890625,6.25 L8.59375,6.25 L2.8640625,6.25 L1.96875,6.25 C0.8828125,6.25 0,7.2140625 0,8.3984375 L0,22.8515625 C0,24.0359375 0.8828125,25 1.96875,25 L9.4890625,25 C10.575,25 11.4578125,24.0359375 11.4578125,22.8515625 L11.4578125,8.3984375 C11.4578125,7.2140625 10.575,6.25 9.4890625,6.25 Z M10.0265625,22.65625 C10.0265625,23.0875 9.70625,23.4375 9.3109375,23.4375 L2.1484375,23.4375 C1.753125,23.4375 1.4328125,23.0875 1.4328125,22.65625 L1.4328125,8.3328125 C1.4328125,7.9015625 1.753125,7.5515625 2.1484375,7.5515625 L2.50625,7.5515625 C2.9015625,7.5515625 3.221875,7.9015625 3.221875,8.3328125 C3.221875,8.7640625 3.5421875,9.1140625 3.9375,9.1140625 L7.51875,9.1140625 C7.9140625,9.1140625 8.234375,8.7640625 8.234375,8.3328125 C8.234375,7.9015625 8.5546875,7.5515625 8.95,7.5515625 L9.3078125,7.5515625 C9.703125,7.5515625 10.0234375,7.9015625 10.0234375,8.3328125 L10.0234375,22.65625 L10.0265625,22.65625 Z" id="Shape"></path>
                        <path d="M15.1046875,18.2296875 C14.3859375,18.2296875 13.803125,18.8140625 13.803125,19.53125 C13.803125,20.25 14.3875,20.8328125 15.1046875,20.8328125 C15.8234375,20.8328125 16.40625,20.2484375 16.40625,19.53125 C16.40625,18.8125 15.821875,18.2296875 15.1046875,18.2296875 Z" id="Path" fill-opacity="0.6"></path>
                    </g>
                </g>
            </g>
        </g>
    </g>
</svg>