<?xml version="1.0" encoding="UTF-8"?>
<svg width="55px" height="70px" viewBox="0 0 55 70" version="1.1" xmlns="http://www.w3.org/2000/svg" xmlns:xlink="http://www.w3.org/1999/xlink">
    <!-- Generator: Sketch 64 (93537) - https://sketch.com -->
    <title>1516989</title>
    <desc>Created with Sketch.</desc>
    <g id="Page-1" stroke="none" stroke-width="1" fill="none" fill-rule="evenodd">
        <g id="서브-중증도" transform="translate(-333.000000, -1008.000000)" fill="#31ACFA" fill-rule="nonzero">
            <g id="Group-27" transform="translate(284.000000, 1008.000000)">
                <g id="1516989" transform="translate(49.000000, 0.000000)">
                    <path d="M48.698125,0 L36.0292187,0 C33.0745898,0 30.6708008,2.40378906 30.6708008,5.35841797 L30.6708008,18.0274609 C30.6708008,20.9820898 33.0745898,23.3858789 36.0292187,23.3858789 L48.698125,23.3858789 C51.6528906,23.3858789 54.0566797,20.9820898 54.0566797,18.0274609 L54.0566797,5.35841797 C54.0566797,2.40378906 51.6530273,0 48.698125,0 Z M49.9552539,18.0274609 C49.9552539,18.7204883 49.3912891,19.2843164 48.6982617,19.2843164 L36.0293555,19.2843164 C35.3363281,19.2843164 34.7725,18.7204883 34.7725,18.0274609 L34.7725,5.35841797 C34.7725,4.66539062 35.3363281,4.1015625 36.0293555,4.1015625 L48.6982617,4.1015625 C49.3912891,4.1015625 49.9552539,4.66539063 49.9552539,5.35841797 L49.9552539,18.0274609 Z" id="Shape"></path>
                    <path d="M38.8843164,28.5057227 C37.9003516,28.5057227 36.9725781,28.7499023 36.1581445,29.1809766 C35.1088281,27.6088477 33.3189063,26.5715625 31.2912305,26.5715625 C30.2441016,26.5715625 29.2602734,26.8482812 28.4090625,27.3324023 C27.3436133,25.8855078 25.6284766,24.9451562 23.6980078,24.9451562 C23.0904297,24.9451562 22.5037695,25.0383984 21.9522461,25.2112109 L21.9522461,23.3857422 L22.439375,23.3857422 C25.3940039,23.3857422 27.797793,20.9819531 27.797793,18.0273242 L27.797793,5.35841797 C27.797793,2.40378906 25.3940039,0 22.439375,0 L9.77046875,0 C6.81583984,0 4.41205078,2.40378906 4.41205078,5.35841797 L4.41205078,18.0274609 C4.41205078,20.9820898 6.81583984,23.3858789 9.77046875,23.3858789 L10.2575977,23.3858789 L10.2575977,36.0900586 C9.94054688,35.7720508 9.58439453,35.4886328 9.19337891,35.2458203 C7.93365234,34.4632422 6.45640625,34.1908984 5.00787109,34.4698047 C3.45037109,34.5322852 2.05255859,35.2120508 1.14460937,36.3565234 C0.190859375,37.5585547 -0.140410156,39.1706055 0.235429687,40.7791016 L2.93042969,52.3129687 C4.46769531,61.9360547 11.974375,69.1359375 12.2940234,69.4384961 C12.6749219,69.7990234 13.1794141,69.9998633 13.7038672,69.9998633 L36.7699609,69.9998633 C37.4603906,69.9998633 38.1043359,69.6524609 38.4835937,69.0756445 C42.5688867,62.8615039 44.7289062,55.6461719 44.7298633,48.2099023 L44.7320508,34.3531836 C44.7320508,34.3530469 44.7320508,34.3530469 44.7320508,34.3529102 C44.7320508,31.1288086 42.1085547,28.5057227 38.8843164,28.5057227 Z M14.5654687,65.8984375 C12.9126758,64.1403711 8.04193359,58.4632617 6.97033203,51.6025781 C6.96240234,51.5521289 6.95269531,51.5020898 6.94107422,51.4524609 L4.22912109,39.8458594 C4.13861328,39.458125 4.18414063,39.1242578 4.3575,38.9056445 C4.53085937,38.6870313 4.82740234,38.5728711 5.22375,38.5351367 C5.42322266,38.5161328 5.5059375,38.4924805 5.69037109,38.4812695 C6.155625,38.4531055 6.63263672,38.4838672 7.02884766,38.7299609 C7.42505859,38.9760547 7.70150391,39.3616016 7.80759766,39.8156445 L10.1467188,49.8271484 C10.3420898,50.6630469 11.0373047,51.2889453 11.8890625,51.3954492 L12.0533984,51.415957 C12.6373242,51.4889648 13.2241211,51.3078125 13.6651758,50.9185742 C14.1062305,50.5293359 14.35875,49.9693359 14.35875,49.3810352 L14.35875,16.7879688 C14.35875,15.825332 15.1420117,15.0420703 16.1046484,15.0420703 C17.0672852,15.0420703 17.8505469,15.825332 17.8505469,16.7879688 L17.8505469,30.7926172 L17.8505469,36.0188281 C17.8505469,37.1514063 18.76875,38.0696094 19.9013281,38.0696094 C21.0339063,38.0696094 21.9521094,37.1514063 21.9521094,36.0188281 L21.9521094,30.7926172 C21.9521094,29.8299805 22.7352344,29.0468555 23.6978711,29.0468555 C24.6605078,29.0468555 25.4437695,29.8299805 25.4437695,30.7926172 L25.4437695,32.4190234 L25.4437695,36.2523438 C25.4437695,37.3849219 26.3619727,38.303125 27.4945508,38.303125 C28.6271289,38.303125 29.545332,37.3849219 29.545332,36.2523438 L29.545332,32.4190234 C29.545332,31.4563867 30.3285938,30.673125 31.2912305,30.673125 C32.2538672,30.673125 33.0369922,31.4563867 33.0369922,32.4190234 L33.0369922,34.3530469 L33.0369922,37.6844727 C33.0369922,38.8170508 33.9551953,39.7352539 35.0877734,39.7352539 C36.2203516,39.7352539 37.1385547,38.8170508 37.1385547,37.6844727 L37.1385547,34.3530469 C37.1385547,33.3904102 37.9218164,32.6071484 38.8844531,32.6071484 C39.8470898,32.6071484 40.6303516,33.3904102 40.6303516,34.3526367 L40.6281641,48.2094922 C40.6273438,54.4773633 38.906875,60.5696875 35.6428516,65.8984375 L14.5654687,65.8984375 Z M8.51361328,18.0274609 L8.51361328,5.35841797 C8.51361328,4.66539062 9.07744141,4.1015625 9.77046875,4.1015625 L22.439375,4.1015625 C23.1324023,4.1015625 23.6962305,4.66539063 23.6962305,5.35841797 L23.6962305,18.0274609 C23.6962305,18.7204883 23.1324023,19.2843164 22.439375,19.2843164 L21.9522461,19.2843164 L21.9522461,16.787832 C21.9522461,13.5635938 19.3290234,10.9403711 16.1047852,10.9403711 C12.8805469,10.9403711 10.2573242,13.5635938 10.2573242,16.787832 L10.2573242,19.2843164 L9.77019531,19.2843164 C9.07744141,19.2843164 8.51361328,18.7204883 8.51361328,18.0274609 Z" id="Shape"></path>
                </g>
            </g>
        </g>
    </g>
</svg>