<?xml version="1.0" encoding="UTF-8"?>
<svg width="70px" height="70px" viewBox="0 0 70 70" version="1.1" xmlns="http://www.w3.org/2000/svg" xmlns:xlink="http://www.w3.org/1999/xlink">
    <!-- Generator: Sketch 64 (93537) - https://sketch.com -->
    <title>covid-19 (1)</title>
    <desc>Created with Sketch.</desc>
    <g id="Page-1" stroke="none" stroke-width="1" fill="none" fill-rule="evenodd">
        <g id="서브-보호구" transform="translate(-814.000000, -970.000000)" fill="#31ACFA" fill-rule="nonzero">
            <g id="covid-19-(1)" transform="translate(814.000000, 970.000000)">
                <path d="M70,67.9494785 C70,64.7661069 68.9867773,61.7400993 67.069707,59.1987614 C65.1526367,56.6574236 62.5214844,54.8517722 59.4607617,53.9773157 L55.9220703,52.9662767 C55.983457,52.6177792 56.0283008,52.2677779 56.0545508,51.9162727 C56.5267773,45.5738656 51.1467578,40.8359959 48.4842969,38.8964963 C48.7298437,38.081376 48.9105859,37.2361775 49.0203711,36.3674632 L49.7051953,36.3674632 C54.1365234,36.3674632 57.7416602,32.7623127 57.7416602,28.3309677 C57.7416602,25.7587313 56.5254102,23.4664959 54.6395117,21.9945763 L54.6395117,19.6397235 C54.639375,8.81018992 45.8292188,-3.88579544e-15 35,-3.88579544e-15 C24.1707813,-3.88579544e-15 15.360625,8.81018992 15.360625,19.6394501 L15.360625,21.9943028 C13.4745898,23.4662225 12.2584766,25.7584578 12.2584766,28.3308309 C12.2584766,32.762176 15.8636133,36.3673265 20.2949414,36.3673265 L20.9797656,36.3673265 C21.0895508,37.2360408 21.270293,38.0812393 21.5158398,38.8963596 C18.8533789,40.8359959 13.4733594,45.5737289 13.9455859,51.9161359 C13.9716992,52.2676412 14.0166797,52.6176425 14.0780664,52.9661399 L10.539375,53.977179 C7.47851563,54.8516354 4.84736328,56.6572869 2.93042969,59.1986247 C1.01349609,61.7399625 7.77156117e-15,64.7661069 7.77156117e-15,67.9494785 L7.77156117e-15,70.0002676 L70,70.0002676 L70,67.9494785 Z M42.2434961,51.7304712 C40.7435547,55.1740195 37.5683984,56.4202157 35,56.4202157 C32.4316016,56.4202157 29.2563086,55.1738828 27.7565039,51.7304712 L28.9447266,47.871433 C30.7814062,48.7931943 32.8345117,49.3099932 35.0001367,49.3099932 C37.1657617,49.3099932 39.2188672,48.7931943 41.0555469,47.871433 L42.2434961,51.7304712 Z M35,45.2085517 C30.090293,45.2085517 25.9948828,41.3916231 25.1280859,36.3673265 L27.7696289,36.3673265 C29.8850781,36.3673265 31.9357227,35.6103119 33.5436719,34.235873 L35,32.9909073 L36.4563281,34.2357363 C38.0644141,35.6103119 40.1150586,36.3671898 42.2303711,36.3671898 L44.8719141,36.3671898 C44.0051172,41.3914863 39.909707,45.2085517 35,45.2085517 Z M45.0437695,32.2657483 L42.2305078,32.2657483 C41.0915039,32.2657483 39.9872266,31.8581882 39.1213867,31.11799 L35,27.5951445 L30.8786133,31.11799 C30.0127734,31.8581882 28.9084961,32.2657483 27.7694922,32.2657483 L24.9562305,32.2657483 L24.9562305,22.3451245 C24.9562305,20.0720298 26.8054883,18.222765 29.0785742,18.222765 L40.9212891,18.222765 C43.194375,18.222765 45.0437695,20.0720298 45.0437695,22.3451245 L45.0437695,32.2657483 L45.0437695,32.2657483 Z M49.7051953,32.2657483 L49.145332,32.2657483 L49.145332,24.3959136 L49.7051953,24.3959136 C51.8749219,24.3959136 53.6400977,26.1610961 53.6400977,28.3308309 C53.6400977,30.5005658 51.8749219,32.2657483 49.7051953,32.2657483 L49.7051953,32.2657483 Z M19.4620508,19.6394501 C19.4620508,11.0718001 26.4323828,4.10157818 35,4.10157818 C43.5676172,4.10157818 50.5378125,11.0718001 50.5378125,19.6394501 L50.5378125,20.337402 C50.2639648,20.3091011 49.9862891,20.2943354 49.7050586,20.2943354 L48.8863867,20.2943354 C47.9729687,16.7486578 44.7481836,14.1211868 40.9212891,14.1211868 L29.0785742,14.1211868 C25.2516797,14.1211868 22.0268945,16.7486578 21.1134766,20.2943354 L20.2948047,20.2943354 C20.0135742,20.2943354 19.7358984,20.3091011 19.4620508,20.337402 L19.4620508,19.6394501 L19.4620508,19.6394501 Z M16.3599023,28.3308309 C16.3599023,26.1610961 18.1250781,24.3959136 20.2948047,24.3959136 L20.854668,24.3959136 L20.854668,32.2657483 L20.2948047,32.2657483 C18.1250781,32.2657483 16.3599023,30.5005658 16.3599023,28.3308309 L16.3599023,28.3308309 Z M23.2693945,42.7169797 C23.8891406,43.6852256 24.6140234,44.5723969 25.4259961,45.3614039 L23.4266211,51.8550224 L23.6520703,52.4937749 C25.3739063,57.3705513 29.8282031,60.5217938 35,60.5217938 C40.1717969,60.5217938 44.6260938,57.3705513 46.3479297,52.4937749 L46.5733789,51.8550224 L44.5740039,45.3614039 C45.3837891,44.5744477 46.107168,43.689874 46.7258203,42.724636 C48.8885742,44.4422402 52.2510352,47.7605536 51.9643359,51.6116621 C51.6072266,56.4100984 45.7462305,61.2852342 35,65.7340794 C24.2625195,61.2890624 18.4024805,56.4180281 18.0364844,51.62342 C17.7395312,47.7325262 21.1024023,44.4255604 23.2693945,42.7169797 Z M11.6660742,57.9209831 L15.5099219,56.8227172 C16.3337891,58.2573125 17.4744336,59.6555405 18.9281641,61.0085144 C20.7306641,62.6860599 23.0499609,64.3202654 25.8626758,65.8986894 L18.2226953,65.8986894 L18.2226953,62.1160773 L14.1211328,62.1160773 L14.1211328,65.8986894 L4.30732422,65.8986894 C5.06912109,62.139593 7.88306641,59.0018857 11.6660742,57.9209831 L11.6660742,57.9209831 Z M55.8788672,65.8986894 L55.8788672,62.1160773 L51.7773047,62.1160773 L51.7773047,65.8986894 L44.1373242,65.8986894 C46.9500391,64.3204021 49.2694727,62.6860599 51.0718359,61.0085144 C52.5255664,59.6555405 53.6662109,58.2573125 54.4900781,56.8227172 L58.3339258,57.9209831 C62.1169336,59.001749 64.9308789,62.1394563 65.6926758,65.8986894 L55.8788672,65.8986894 Z" id="Shape"></path>
            </g>
        </g>
    </g>
</svg>