<?xml version="1.0" encoding="UTF-8"?>
<svg width="61px" height="70px" viewBox="0 0 61 70" version="1.1" xmlns="http://www.w3.org/2000/svg" xmlns:xlink="http://www.w3.org/1999/xlink">
    <!-- Generator: Sketch 64 (93537) - https://sketch.com -->
    <title>1716209</title>
    <desc>Created with Sketch.</desc>
    <g id="Page-1" stroke="none" stroke-width="1" fill="none" fill-rule="evenodd">
        <g id="서브-중증도" transform="translate(-818.000000, -1008.000000)" fill="#31ACFA" fill-rule="nonzero">
            <g id="Group-30" transform="translate(781.333333, 1008.000000)">
                <g id="1716209" transform="translate(37.000000, 0.000000)">
                    <path d="M36.971831,16.1751761 C36.971831,12.3528279 33.8619608,9.24295775 30.0396127,9.24295775 C26.2172645,9.24295775 23.1073944,12.3528279 23.1073944,16.1751761 C23.1073944,19.9975242 26.2172645,23.1073944 30.0396127,23.1073944 C33.8619608,23.1073944 36.971831,19.9975242 36.971831,16.1751761 Z M30.0396127,18.4859155 C28.7656972,18.4859155 27.7288732,17.4490915 27.7288732,16.1751761 C27.7288732,14.9012606 28.7656972,13.8644366 30.0396127,13.8644366 C31.3135281,13.8644366 32.3503521,14.9012606 32.3503521,16.1751761 C32.3503521,17.4490915 31.3135281,18.4859155 30.0396127,18.4859155 Z" id="Shape"></path>
                    <path d="M57.7684859,55.7658451 L55.4577465,55.7658451 L54.9580078,48.8336268 C54.9580078,47.5573043 54.4233295,46.9516602 53.147007,46.9516602 L31.8696289,46.9516602 L31.8696289,41.4639325 C42.2655494,40.3097664 50.8362676,31.4693827 50.8362676,20.7966549 C50.8362676,9.32961048 41.5066571,0 30.0396127,0 C18.5725682,0 9.24295775,9.32961048 9.24295775,20.7966549 C9.24295775,31.4669757 17.6806434,40.3097664 28.0783691,41.4639325 L28.0783691,46.9516602 L6.93221831,46.9516602 C5.65589586,46.9516602 5.02587891,47.5573043 5.02587891,48.8336268 L4.62147887,55.7658451 L2.31073944,55.7658451 C1.03441699,55.7658451 0,56.8002621 0,58.0765845 L0,67.3195423 C0,68.5958647 1.03441699,69.6302817 2.31073944,69.6302817 L4.62147887,69.6302817 L9.24295775,69.6302817 L11.5536972,69.6302817 C12.8300196,69.6302817 13.8644366,68.5958647 13.8644366,67.3195423 L13.8644366,58.0765845 C13.8644366,56.8002621 12.8300196,55.7658451 11.5536972,55.7658451 L9.24295775,55.7658451 L9.24295775,51.1443662 L28.0783691,51.1443662 L28.0783691,55.7658451 L25.4181338,55.7658451 C24.1418114,55.7658451 23.1073944,56.8002621 23.1073944,58.0765845 L23.1073944,67.3195423 C23.1073944,68.5958647 24.1418114,69.6302817 25.4181338,69.6302817 L27.7288732,69.6302817 L32.3503521,69.6302817 L34.6610915,69.6302817 C35.937414,69.6302817 36.971831,68.5958647 36.971831,67.3195423 L36.971831,58.0765845 C36.971831,56.8002621 35.937414,55.7658451 34.6610915,55.7658451 L31.8696289,55.7658451 L31.8696289,51.1443662 L50.8362676,51.1443662 L50.8362676,55.7658451 L48.5255282,55.7658451 C47.2492057,55.7658451 46.2147887,56.8002621 46.2147887,58.0765845 L46.2147887,67.3195423 C46.2147887,68.5958647 47.2492057,69.6302817 48.5255282,69.6302817 L50.8362676,69.6302817 L55.4577465,69.6302817 L57.7684859,69.6302817 C59.0448084,69.6302817 60.0792254,68.5958647 60.0792254,67.3195423 L60.0792254,58.0765845 C60.0792254,56.8002621 59.0448084,55.7658451 57.7684859,55.7658451 Z M23.1073944,35.4090731 L22.7880859,34.0227051 C22.7880859,30.2003569 26.2172645,27.3950195 30.0396127,27.3950195 C33.8619608,27.3950195 37.5148926,30.6525054 37.5148926,34.4748535 L36.971831,35.4090731 C34.8705023,36.4097917 32.5206488,37.3856288 30.0420197,37.3862305 C27.5585765,37.3856288 25.208723,36.4097917 23.1073944,35.4090731 Z M13.1071777,20.7966549 C13.1071777,11.8774413 21.1203991,3.99023438 30.0396127,3.99023438 C38.9588263,3.99023438 46.8757324,11.8774413 46.8757324,20.7966549 C46.8757324,25.3128266 44.481019,29.7551028 41.486084,32.6928711 C40.4083408,27.430523 35.615475,23.5556641 30.0396127,23.5556641 C24.4637504,23.5556641 19.7825772,27.430523 18.704834,32.6928711 C15.7098989,29.7551028 13.1071777,25.3128266 13.1071777,20.7966549 Z M9.93221831,65.6980634 L3.93221831,65.6980634 L3.93221831,59.6980634 L9.93221831,59.6980634 L9.93221831,65.6980634 Z M33.0396127,65.6980634 L27.0396127,65.6980634 L27.0396127,59.6980634 L33.0396127,59.6980634 L33.0396127,65.6980634 Z M56.147007,65.6980634 L50.147007,65.6980634 L50.147007,59.6980634 L56.147007,59.6980634 L56.147007,65.6980634 Z" id="Shape"></path>
                </g>
            </g>
        </g>
    </g>
</svg>