<?xml version="1.0" encoding="UTF-8"?>
<svg width="66px" height="70px" viewBox="0 0 66 70" version="1.1" xmlns="http://www.w3.org/2000/svg" xmlns:xlink="http://www.w3.org/1999/xlink">
    <!-- Generator: Sketch 64 (93537) - https://sketch.com -->
    <title>3022254</title>
    <desc>Created with Sketch.</desc>
    <g id="Page-1" stroke="none" stroke-width="1" fill="none" fill-rule="evenodd">
        <g id="서브-중증도" transform="translate(-1048.000000, -1008.000000)" fill="#31ACFA" fill-rule="nonzero">
            <g id="Group-28" transform="translate(1008.000000, 1008.000000)">
                <g id="3022254" transform="translate(40.000000, 0.000000)">
                    <path d="M21.8066406,19.8242188 L10.8691406,19.8242188 C9.7365625,19.8242188 8.81835938,20.7424219 8.81835938,21.875 C8.81835938,23.0075781 9.7365625,23.9257812 10.8691406,23.9257812 L21.8066406,23.9257812 C22.9392187,23.9257812 23.8574219,23.0075781 23.8574219,21.875 C23.8574219,20.7424219 22.9392187,19.8242188 21.8066406,19.8242188 Z" id="Path"></path>
                    <path d="M21.8066406,30.7617188 L10.8691406,30.7617188 C9.7365625,30.7617188 8.81835938,31.6799219 8.81835938,32.8125 C8.81835938,33.9450781 9.7365625,34.8632812 10.8691406,34.8632812 L21.8066406,34.8632812 C22.9392187,34.8632812 23.8574219,33.9450781 23.8574219,32.8125 C23.8574219,31.6799219 22.9392187,30.7617188 21.8066406,30.7617188 Z" id="Path"></path>
                    <path d="M21.8066406,41.6992188 L10.8691406,41.6992188 C9.7365625,41.6992188 8.81835938,42.6174219 8.81835938,43.75 C8.81835938,44.8825781 9.7365625,45.8007812 10.8691406,45.8007812 L21.8066406,45.8007812 C22.9392187,45.8007812 23.8574219,44.8825781 23.8574219,43.75 C23.8574219,42.6174219 22.9392187,41.6992188 21.8066406,41.6992188 Z" id="Path"></path>
                    <path d="M51.2011719,37.5878125 L51.2011719,18.8644531 C51.2011719,16.1615234 50.1589648,13.611582 48.2665039,11.6830273 L39.9455273,3.07808594 C39.9415625,3.07398437 39.9374609,3.06974609 39.9334961,3.06564453 C38.0176562,1.11740234 35.3517773,0 32.6197266,0 L6.22070312,0 C2.82830078,0 0.068359375,2.75994141 0.068359375,6.15234375 L0.068359375,59.3359375 C0.068359375,62.7283398 2.82830078,65.4882812 6.22070312,65.4882812 L37.9166211,65.4882812 C40.8391211,68.2818555 44.7978125,70 49.1503906,70 C58.1967969,70 65.5566406,62.701543 65.5566406,53.7304688 C65.5566406,45.4480469 59.2833008,38.5917383 51.2011719,37.5878125 Z M4.16992188,59.3359375 L4.16992188,6.15234375 C4.16992188,5.02154297 5.08990234,4.1015625 6.22070312,4.1015625 L32.6197266,4.1015625 C34.2567969,4.1015625 35.8542187,4.77025391 37.00375,5.93605469 L45.3232227,14.5396289 C45.3271875,14.5437305 45.3311523,14.547832 45.3349805,14.5517969 C46.4728906,15.7093945 47.0996094,17.240918 47.0996094,18.8645898 L47.0996094,37.5898633 C39.0930859,38.6013086 32.8808594,45.4540625 32.8808594,53.7306055 C32.8808594,56.4968359 33.5756641,59.1036523 34.7986133,61.3868555 L6.22070312,61.3868555 C5.08990234,61.3868555 4.16992188,60.4667383 4.16992188,59.3359375 Z M49.1503906,65.8984375 C42.440918,65.8984375 36.9824219,60.4399414 36.9824219,53.7304688 C36.9824219,47.0209961 42.440918,41.5625 49.1503906,41.5625 C55.9351953,41.5625 61.4550781,47.0209961 61.4550781,53.7304688 C61.4550781,60.4399414 55.9351953,65.8984375 49.1503906,65.8984375 Z" id="Shape"></path>
                    <path d="M53.8812695,48.8738086 C53.0113281,48.1490625 51.7181055,48.2665039 50.9929492,49.1364453 L47.5316406,53.2900977 L46.7464648,51.7197461 C46.2399219,50.7066602 45.0080859,50.2958203 43.995,50.8026367 C42.9819141,51.309043 42.5713477,52.5410156 43.0778906,53.5539648 L45.2653906,57.9289648 C45.5749219,58.5480273 46.1758008,58.9691211 46.8632227,59.0489648 C46.9423828,59.0579883 47.0212695,59.0626367 47.0998828,59.0626367 C47.7043164,59.0626367 48.2830469,58.7952148 48.6751563,58.3247656 L54.1439063,51.7622656 C54.8689258,50.8919141 54.7513477,49.5988281 53.8812695,48.8738086 L53.8812695,48.8738086 Z" id="Path"></path>
                    <path d="M32.7441406,23.9257812 L34.9316406,23.9257812 C36.0642188,23.9257812 36.9824219,23.0075781 36.9824219,21.875 C36.9824219,20.7424219 36.0642188,19.8242188 34.9316406,19.8242188 L32.7441406,19.8242188 C31.6115625,19.8242188 30.6933594,20.7424219 30.6933594,21.875 C30.6933594,23.0075781 31.6115625,23.9257812 32.7441406,23.9257812 Z" id="Path"></path>
                    <path d="M36.9824219,32.8125 C36.9824219,31.6799219 36.0642188,30.7617188 34.9316406,30.7617188 L32.7441406,30.7617188 C31.6115625,30.7617188 30.6933594,31.6799219 30.6933594,32.8125 C30.6933594,33.9450781 31.6115625,34.8632812 32.7441406,34.8632812 L34.9316406,34.8632812 C36.0642188,34.8632812 36.9824219,33.9450781 36.9824219,32.8125 Z" id="Path"></path>
                </g>
            </g>
        </g>
    </g>
</svg>