<?xml version="1.0" encoding="UTF-8"?>
<svg width="71px" height="70px" viewBox="0 0 71 70" version="1.1" xmlns="http://www.w3.org/2000/svg" xmlns:xlink="http://www.w3.org/1999/xlink">
    <!-- Generator: Sketch 64 (93537) - https://sketch.com -->
    <title>1665580</title>
    <desc>Created with Sketch.</desc>
    <g id="Page-1" stroke="none" stroke-width="1" fill="none" fill-rule="evenodd">
        <g id="서브-중증도" transform="translate(-574.000000, -1008.000000)" fill="#31ACFA" fill-rule="nonzero">
            <g id="Group-29" transform="translate(528.666667, 1008.000000)">
                <g id="1665580" transform="translate(46.000000, 0.000000)">
                    <path d="M6.15234375,41.016693 C2.76000977,41.016693 0,38.2566833 0,34.8643493 C0,31.4720153 2.76000977,28.7120055 6.15234375,28.7120055 C9.54521176,28.7120055 12.3052215,31.4720153 12.3052215,34.8643493 C12.3052215,38.2566833 9.54521176,41.016693 6.15234375,41.016693 Z M32.4034118,13.672409 C28.6340332,13.672409 25.5669403,10.6058503 25.5669403,6.8359375 C25.5669403,3.06655891 28.6340332,0 32.4034118,0 C36.1727905,0 39.2393493,3.06655891 39.2393493,6.8359375 C39.2393493,10.6058503 36.1727905,13.672409 32.4034118,13.672409 Z M32.4034118,5.46875 C31.6493226,5.46875 31.0362243,6.08238217 31.0362243,6.8359375 C31.0362243,7.59002686 31.6493226,8.203125 32.4034118,8.203125 C33.1569671,8.203125 33.7705993,7.59002686 33.7705993,6.8359375 C33.7705993,6.08238217 33.1569671,5.46875 32.4034118,5.46875 Z M13.7407684,22.1489715 C11.9692993,22.1489715 10.3041077,21.4595032 9.05174252,20.206604 C7.79937744,18.9542389 7.109375,17.2890472 7.109375,15.5181121 C7.109375,13.7466431 7.79937744,12.0814515 9.05174252,10.8290863 C10.3041077,9.57672119 11.9692993,8.88671875 13.7407684,8.88671875 C15.5117035,8.88671875 17.1768952,9.57672119 18.4297943,10.8290863 L18.4292603,10.8290863 L18.4297943,10.8290863 C19.6821595,12.0814515 20.3716278,13.7466431 20.3716278,15.5181121 C20.3716278,17.2890472 19.6821595,18.9542389 18.4292603,20.207138 C17.1768952,21.4595032 15.5117035,22.1489715 13.7407684,22.1489715 Z M13.7407684,14.3560028 C13.560791,14.3560028 13.2152557,14.3997956 12.9188538,14.6961976 C12.6224518,14.9925995 12.578659,15.3381348 12.578659,15.5181121 C12.578659,15.6980895 12.6224518,16.0436248 12.9188538,16.3394928 C13.2152557,16.6358948 13.560791,16.6802215 13.7407684,16.6802215 C13.9202118,16.6802215 14.2662811,16.6358948 14.5621491,16.3400269 C14.8585511,16.0436248 14.9028778,15.6980895 14.9028778,15.5181121 C14.9028778,15.3381348 14.8585511,14.9925995 14.5626831,14.6961976 L14.5621491,14.6961976 C14.2662811,14.3997956 13.9202118,14.3560028 13.7407684,14.3560028 Z M52.2965241,22.422409 C50.2697754,22.422409 48.3642578,21.6330719 46.9308472,20.2001953 C45.4974365,18.7667847 44.7080993,16.8612671 44.7080993,14.8345184 C44.7080993,12.8077698 45.4974365,10.9022523 46.9308472,9.46884148 C48.3642578,8.03543098 50.2697754,7.24609375 52.2965241,7.24609375 C54.3232728,7.24609375 56.2287904,8.03543098 57.6622009,9.46884148 C59.0950775,10.9022523 59.8844147,12.8077698 59.8844147,14.8345184 C59.8844147,16.8612671 59.0950775,18.7667847 57.6622009,20.2001953 C56.2287904,21.6330719 54.3232728,22.422409 52.2965241,22.422409 Z M52.2965241,12.7153778 C51.730423,12.7153778 51.1985016,12.9354095 50.7979583,13.3359528 C50.3979492,13.7364959 50.1773835,14.2684173 50.1773835,14.8345184 C50.1773835,15.4006195 50.3974152,15.9325409 50.7979583,16.3325501 C51.1985016,16.7330933 51.730423,16.953659 52.2965241,16.953659 C52.8626252,16.953659 53.3945465,16.7330933 53.7945557,16.3330841 C54.1950989,15.9325409 54.4156647,15.4006195 54.4156647,14.8345184 C54.4156647,14.2684173 54.1950989,13.7364959 53.7945557,13.3359528 C53.3945465,12.9354095 52.8626252,12.7153778 52.2965241,12.7153778 Z M61.1148835,43.610611 C58.839264,43.610611 56.5636444,42.7443695 54.8311615,41.0118866 C51.3656616,37.5469207 51.3656616,31.9083405 54.8311615,28.4433747 C58.2961273,24.9784088 63.9341735,24.9784088 67.3991393,28.4433747 C70.8641052,31.9083405 70.8641052,37.5469207 67.3991393,41.0118866 C65.6666566,42.7443695 63.391037,43.610611 61.1148835,43.610611 Z M61.1148835,31.311264 C60.239563,31.311264 59.3642425,31.644516 58.6982728,32.3104858 C57.365265,33.6434937 57.365265,35.8117676 58.6982728,37.1447754 C60.0307464,38.4772492 62.1990204,38.4772492 63.5320282,37.1447754 C64.864502,35.8117676 64.864502,33.6434937 63.5320282,32.3104858 C62.8655243,31.644516 61.9902038,31.311264 61.1148835,31.311264 L61.1148835,31.311264 Z M52.3648835,66.3059235 C49.9488068,66.3059235 47.5332642,65.3868102 45.6939697,63.5475159 C42.0159149,59.8694611 42.0159149,53.8842773 45.6939697,50.2062225 C49.3720246,46.5276336 55.3572083,46.5276336 59.035263,50.2062225 C62.7138519,53.8842773 62.7138519,59.8694611 59.035263,63.5475159 C57.1965026,65.3868102 54.7804261,66.3059235 52.3648835,66.3059235 L52.3648835,66.3059235 Z M52.3648835,52.9133607 C51.34964,52.9133607 50.3343963,53.3000182 49.5610809,54.0727996 C48.0155182,55.6188965 48.0155182,58.1343079 49.5610809,59.6804046 C51.1071777,61.2265015 53.6225892,61.2265015 55.1686859,59.6804046 C56.7142487,58.1343079 56.7142487,55.6188965 55.1686859,54.0727996 C54.3953704,53.3000182 53.380127,52.9133607 52.3648835,52.9133607 Z M12.6464844,60.0184632 C11.1238861,60.0184632 9.60075375,59.4384766 8.44131477,58.2795716 C6.12243652,55.9601593 6.12243652,52.1870423 8.44131477,49.8681641 C10.7601929,47.5492858 14.5333099,47.5492858 16.8521881,49.8681641 C19.1710662,52.1870423 19.1710662,55.9601593 16.8521881,58.2790374 C15.692749,59.4384766 14.1696167,60.0184632 12.6464844,60.0184632 Z M28.7114715,70 C27.6609802,70 26.6110229,69.6005249 25.8115387,68.8010407 C24.2120361,67.2015381 24.2120361,64.5990754 25.8110046,63.0001068 L25.8115387,62.9995728 C27.4105072,61.4006042 30.01297,61.4006042 31.6119385,62.9995728 C33.2114411,64.5990754 33.2114411,67.2015381 31.6124725,68.8005065 C30.8124543,69.5999909 29.7619629,70 28.7114715,70 L28.7114715,70 Z" id="Shape"></path>
                </g>
            </g>
        </g>
    </g>
</svg>