<?xml version="1.0" encoding="UTF-8"?>
<svg width="70px" height="70px" viewBox="0 0 70 70" version="1.1" xmlns="http://www.w3.org/2000/svg" xmlns:xlink="http://www.w3.org/1999/xlink">
    <!-- Generator: Sketch 64 (93537) - https://sketch.com -->
    <title>covid-19</title>
    <desc>Created with Sketch.</desc>
    <g id="Page-1" stroke="none" stroke-width="1" fill="none" fill-rule="evenodd">
        <g id="서브-보호구" transform="translate(-575.000000, -968.000000)" fill="#31ACFA" fill-rule="nonzero">
            <g id="Group-29" transform="translate(529.000000, 968.000000)">
                <g id="covid-19" transform="translate(46.000000, 0.000000)">
                    <path d="M67.069707,59.1985352 C65.1527734,56.657207 62.5214844,54.8515625 59.4607617,53.9771094 L52.7395312,52.0567578 C55.8672461,48.1606836 57.7416602,43.2177539 57.7416602,37.8444336 L57.7416602,27.6367383 L60.5664062,27.6367383 L60.5664062,23.5351758 L57.7416602,23.5351758 L57.7416602,22.7415234 C57.7416602,10.2018164 47.5398438,0 35,0 C22.4601562,0 12.2583398,10.2018164 12.2583398,22.7415234 L12.2583398,23.5351758 L9.43591797,23.5351758 L9.43591797,27.6367383 L12.2584766,27.6367383 L12.2584766,37.8444336 C12.2584766,43.2177539 14.1328906,48.1606836 17.2606055,52.0567578 L10.539375,53.9771094 C7.47851562,54.8515625 4.84736328,56.657207 2.93042969,59.1985352 C1.01349609,61.7398633 0,64.7658594 0,67.9492187 L0,70 L70,70 L70,67.9492187 C70,64.7658594 68.9867773,61.7398633 67.069707,59.1985352 L67.069707,59.1985352 Z M16.3599023,22.7415234 C16.3599023,12.463418 24.7217578,4.1015625 35,4.1015625 C45.2782422,4.1015625 53.6400977,12.463418 53.6400977,22.7415234 L53.6400977,23.5351758 L49.145332,23.5351758 L49.145332,21.4313477 L48.4661133,20.8203516 C44.7630859,17.4891992 39.9808008,15.654707 35,15.654707 C30.0191992,15.654707 25.2369141,17.4891992 21.5338867,20.8203516 L20.854668,21.4313477 L20.854668,23.5351758 L16.3599023,23.5351758 L16.3599023,22.7415234 Z M45.0437695,32.265625 L42.2305078,32.265625 C41.0915039,32.265625 39.9872266,31.8580664 39.1213867,31.1178711 L35,27.5950391 L30.8786133,31.1178711 C30.0127734,31.8580664 28.9084961,32.265625 27.7694922,32.265625 L24.9562305,32.265625 L24.9562305,23.2912695 C30.8266602,18.5629883 39.1733398,18.5629883 45.0437695,23.2912695 L45.0437695,32.265625 Z M27.7694922,36.3671875 C29.8849414,36.3671875 31.9355859,35.6101758 33.5435352,34.2357422 L35,32.9907812 L36.4563281,34.2356055 C38.0644141,35.6101758 40.1150586,36.3670508 42.2303711,36.3670508 L44.8719141,36.3670508 C44.0051172,41.3911914 39.909707,45.2082422 35,45.2082422 C30.090293,45.2082422 25.9948828,41.3913281 25.1280859,36.3671875 L27.7694922,36.3671875 Z M16.3599023,27.6367383 L20.854668,27.6367383 L20.854668,34.3850391 C20.854668,42.6145508 27.2001953,49.3099414 35,49.3099414 C42.7998047,49.3099414 49.145332,42.6146875 49.145332,34.3850391 L49.145332,27.6367383 L53.6400977,27.6367383 L53.6400977,37.8444336 C53.6400977,48.1225391 45.2782422,56.4843945 35,56.4843945 C24.7217578,56.4843945 16.3599023,48.1225391 16.3599023,37.8444336 L16.3599023,27.6367383 Z M11.6660742,57.9207617 L20.5410352,55.3850391 C23.978418,58.223457 28.2614062,60.0713477 32.9492188,60.4924414 L32.9492188,65.8984375 L18.2226953,65.8984375 L18.2226953,62.1158398 L14.1211328,62.1158398 L14.1211328,65.8984375 L4.30732422,65.8984375 C5.06912109,62.1393555 7.88306641,59.0016602 11.6660742,57.9207617 Z M55.8788672,65.8984375 L55.8788672,62.1158398 L51.7773047,62.1158398 L51.7773047,65.8984375 L37.0507812,65.8984375 L37.0507812,60.4924414 C41.7385937,60.0713477 46.021582,58.223457 49.4589648,55.3850391 L58.3339258,57.9207617 C62.1169336,59.0015234 64.9308789,62.1392188 65.6926758,65.8984375 L55.8788672,65.8984375 Z" id="Shape"></path>
                </g>
            </g>
        </g>
    </g>
</svg>