<?xml version="1.0" encoding="UTF-8"?>
<svg width="80px" height="67px" viewBox="0 0 80 67" version="1.1" xmlns="http://www.w3.org/2000/svg" xmlns:xlink="http://www.w3.org/1999/xlink">
    <!-- Generator: Sketch 64 (93537) - https://sketch.com -->
    <title>Group</title>
    <desc>Created with Sketch.</desc>
    <g id="Page-1" stroke="none" stroke-width="1" fill="none" fill-rule="evenodd">
        <g id="서브-보호구" transform="translate(-367.000000, -2787.000000)" fill-rule="nonzero">
            <g id="Group" transform="translate(367.000000, 2787.000000)">
                <g id="doctor" opacity="0.79869" transform="translate(30.833333, 0.000000)">
                    <path d="M36.8707483,18.2312925 C36.8707483,16.8707483 41.3605442,0 24.4897959,0 C7.61904762,0 11.5646259,14.1193665 11.5646259,17.414966 L36.8707483,18.2312925 Z" id="Path" fill="#42210B"></path>
                    <path d="M13.6383929,16.8707483 C11.7006803,6.60607993 15.8883233,0.66541078 25.3061224,0.0587127159 C24.929956,0.0345368917 24.5617589,-0.00154315447 24.1696679,-9.29299526e-05 C9.25170068,0.0587127159 11.1639217,12.1646471 11.7006803,17.414966 L13.6383929,16.8707483 Z" id="Path" fill="#724118"></path>
                    <path d="M33.1914286,40.2177551 C31.3581259,39.5560474 30.1362611,37.8162082 30.1360544,35.8671429 L30.1360544,31.0204082 L18.5714286,31.0204082 L18.5714286,35.8671429 C18.5712219,37.8162082 17.3493571,39.5560474 15.5160544,40.2177551 L12.7891156,41.2481633 L12.7891156,54.1496599 L35.9183673,54.1496599 L35.9183673,41.2481633 L33.1914286,40.2177551 Z" id="Path" fill="#F4CDA5"></path>
                    <path d="M12.7891156,42.1768707 L17.7019242,40.2628401 C19.4890091,39.5978888 20.6800706,37.8495209 20.6802721,35.8909014 L20.6802721,31.0204082 L18.425656,31.0204082 L18.425656,35.8909014 C18.4254545,37.8495209 17.234393,39.5978888 15.4473081,40.2628401 L12.7891156,41.2982993 L12.7891156,42.1768707 Z" id="Path" fill="#FADCB4"></path>
                    <path d="M42.4697506,43.6657247 L34.2069064,40.5442177 L24.2176871,50.5288904 L14.2284678,40.5442177 L5.96562358,43.6657247 C2.37595708,45.0210916 0,48.4558743 0,52.2913661 L0,66.6666667 L48.4353741,66.6666667 L48.4353741,52.2913661 C48.4353741,48.4558743 46.0594171,45.0210916 42.4697506,43.6657247 Z" id="Path" fill="#42A5F5"></path>
                    <path d="M8.17872148,43.6657247 L14.6938776,41.1770491 L14.0679026,40.5442177 L5.89830283,43.6657247 C2.34914492,45.0210916 0.000405020552,48.4558743 0,52.2913661 L0,66.6666667 L2.28041865,66.6666667 L2.28041865,52.2913661 C2.28082367,48.4558743 4.62956357,45.0210916 8.17872148,43.6657247 L8.17872148,43.6657247 Z" id="Path" fill="#90CAF9"></path>
                    <path d="M30.2040816,30.2040816 L18.7755102,30.2040816 L18.7755102,33.7664399 C20.0354027,35.7045602 22.1670592,36.9133447 24.4897959,37.0068027 C26.8122075,36.9132195 28.9436565,35.7049755 30.2040816,33.7675737 L30.2040816,30.2040816 Z" id="Path" fill="#F2BE97"></path>
                    <rect id="Rectangle" fill="#F4CDA5" x="9.25170068" y="17.414966" width="30.2040816" height="6.80272109" rx="3.40136054"></rect>
                    <path d="M35.9183673,17.2418058 L35.9183673,23.2232529 C35.9183673,30.055906 28.2047619,35.6462585 24.3537415,35.6462585 C22.4340136,35.6462585 19.5428571,34.242919 17.1258503,31.9998763 C14.5404609,29.7826744 12.9745794,26.6136652 12.7891156,23.2232529 L12.7891156,17.2418058 C24.3537415,16.0915275 28.9795918,10.3401361 28.9795918,10.3401361 C30.5729578,13.2596198 32.9831875,15.6569605 35.9183673,17.2418058 L35.9183673,17.2418058 Z" id="Path" fill="#FADCB4"></path>
                    <path d="M15.0748299,22.9515254 L15.0748299,16.8707483 C14.3434014,16.9930794 13.5891156,17.1015616 12.7891156,17.1811922 L12.7891156,23.1823388 C12.9723974,26.583917 14.5198568,29.7633632 17.0748299,31.9878672 C19.4634014,34.2382972 22.3205442,35.6462585 24.2176871,35.6462585 C18.6603615,34.0144718 14.8998968,28.7931176 15.0748299,22.9515254 L15.0748299,22.9515254 Z" id="Path" fill="#F9E5CF"></path>
                    <path d="M24.3537415,31.0200558 C22.8268647,31.0357228 21.3399011,30.5285892 20.1360544,29.5816004 L21.5942787,27.755102 C23.2374005,28.967444 25.4700825,28.967444 27.1132043,27.755102 L28.5714286,29.5816004 C27.3675819,30.5285892 25.8806183,31.0357228 24.3537415,31.0200558 L24.3537415,31.0200558 Z" id="Path" fill="#EAA18C"></path>
                    <path d="M18.2312925,21.7687075 C16.8843537,21.7687075 15.7823129,20.9751474 15.7823129,20 C15.7823129,19.0248526 16.8843537,18.2312925 18.2312925,18.2312925 C19.5782313,18.2312925 20.6802721,19.0248526 20.6802721,20 C20.6802721,20.9751474 19.5782313,21.7687075 18.2312925,21.7687075 Z" id="Path" fill="#42210B"></path>
                    <path d="M30.2040816,21.7687075 C28.8571429,21.7687075 27.755102,20.9751474 27.755102,20 C27.755102,19.0248526 28.8571429,18.2312925 30.2040816,18.2312925 C31.5510204,18.2312925 32.6530612,19.0248526 32.6530612,20 C32.6530612,20.9751474 31.5510204,21.7687075 30.2040816,21.7687075 Z" id="Path" fill="#42210B"></path>
                    <path d="M11.5646259,50.3401361 C10.8883588,50.3401361 10.3401361,49.8257542 10.3401361,49.191232 L10.3401361,41.148904 C10.3401361,40.5143818 10.8883588,40 11.5646259,40 C12.2408929,40 12.7891156,40.5143818 12.7891156,41.148904 L12.7891156,49.191232 C12.7891156,49.8257542 12.2408929,50.3401361 11.5646259,50.3401361 Z" id="Path" fill="#757575"></path>
                    <path d="M12.7891156,41.8487225 L12.7891156,41.1554516 C12.7891156,40.5173133 12.2408929,40 11.5646259,40 C10.8883588,40 10.3401361,40.5173133 10.3401361,41.1554516 L10.3401361,42.7210884 L12.7891156,41.8487225 Z" id="Path" fill="#BDBDBD"></path>
                    <path d="M18.696815,62.3129252 L16.3647701,62.3129252 L16.3647701,60 L17.5307926,60 L17.5307926,56.8197279 C17.6057952,53.5485132 14.9986711,50.8334766 11.7006803,50.7482993 C8.40268948,50.8334766 5.79556535,53.5485132 5.87056798,56.8197279 L5.87056798,60 L7.03659044,60 L7.03659044,62.3129252 L4.70454552,62.3129252 C4.0605691,62.3129252 3.53852306,61.7951592 3.53852306,61.1564626 L3.53852306,56.8197279 C3.46443206,52.2715189 7.11509673,48.521473 11.7006803,48.4353741 C16.2862638,48.521473 19.9369285,52.2715189 19.8628375,56.8197279 L19.8628375,61.1564626 C19.8628375,61.7951592 19.3407914,62.3129252 18.696815,62.3129252 L18.696815,62.3129252 Z" id="Path" fill="#424242"></path>
                    <path d="M36.8707483,55.2380952 C36.1944813,55.2380952 35.6462585,54.7226721 35.6462585,54.0868655 L35.6462585,41.4233386 C35.6462585,40.7875319 36.1944813,40.2721088 36.8707483,40.2721088 C37.5470153,40.2721088 38.0952381,40.7875319 38.0952381,41.4233386 L38.0952381,54.0868655 C38.0952381,54.7226721 37.5470153,55.2380952 36.8707483,55.2380952 Z" id="Path" fill="#757575"></path>
                    <circle id="Oval" fill="#4D4D4D" cx="36.5986395" cy="57.2789116" r="3.40136054"></circle>
                    <path d="M36.7346939,62.0408163 C34.1799073,62.0408163 32.1088435,59.9697526 32.1088435,57.414966 C32.1088435,54.8601794 34.1799073,52.7891156 36.7346939,52.7891156 C39.2894805,52.7891156 41.3605442,54.8601794 41.3605442,57.414966 C41.3605442,59.9697526 39.2894805,62.0408163 36.7346939,62.0408163 Z M36.7346939,55.1020408 C35.4573006,55.1020408 34.4217687,56.1375727 34.4217687,57.414966 C34.4217687,58.6923593 35.4573006,59.7278912 36.7346939,59.7278912 C38.0120872,59.7278912 39.047619,58.6923593 39.047619,57.414966 C39.047619,56.1375727 38.0120872,55.1020408 36.7346939,55.1020408 Z" id="Shape" fill="#424242"></path>
                </g>
                <g id="doctor" transform="translate(0.000000, 0.000000)">
                    <path d="M40.8045977,37.3563218 C39.7005996,36.2525595 39.0803907,34.7553752 39.0804598,33.1942529 L39.0804598,17.2413793 C39.0804598,8.35402299 34.4827586,0 24.137931,0 C13.7931034,0 9.1954023,8.35402299 9.1954023,17.2413793 L9.1954023,33.1942529 C9.19547139,34.7553752 8.57526248,36.2525595 7.47126437,37.3563218 C6.36726625,38.4600841 5.74712644,39.9572684 5.74712644,41.5183908 L5.74712644,44.8275862 L42.5287356,44.8275862 L42.5287356,41.5183908 C42.5287356,39.9572684 41.9085958,38.4600841 40.8045977,37.3563218 Z" id="Path" fill="#42210B"></path>
                    <path d="M9.77011494,37.3563218 C10.8741131,36.2525595 11.494322,34.7553752 11.4942529,33.1942529 L11.4942529,17.2413793 C11.4942529,8.6954023 15.762069,0.664367816 25.2873563,0.0586206897 C24.9068966,0.0344827586 24.5344828,0 24.137931,0 C13.7931034,0 9.1954023,8.35402299 9.1954023,17.2413793 L9.1954023,33.1942529 C9.19547139,34.7553752 8.57526248,36.2525595 7.47126437,37.3563218 C6.36726625,38.4600841 5.74712644,39.9572684 5.74712644,41.5183908 L5.74712644,44.8275862 L8.04597701,44.8275862 L8.04597701,41.5183908 C8.04590792,39.9572684 8.66611683,38.4600841 9.77011494,37.3563218 Z" id="Path" fill="#724118"></path>
                    <path d="M32.9218391,40.1758621 C31.0996924,39.518181 29.8852629,37.788929 29.8850575,35.8517241 L29.8850575,31.0344828 L18.3908046,31.0344828 L18.3908046,35.8517241 C18.3905991,37.788929 17.1761697,39.518181 15.354023,40.1758621 L12.6436782,41.2 L12.6436782,54.0229885 L35.6321839,54.0229885 L35.6321839,41.2 L32.9218391,40.1758621 Z" id="Path" fill="#F4CDA5"></path>
                    <path d="M12.6436782,42.0689655 L17.6528736,40.1758621 C19.4750202,39.518181 20.6894497,37.788929 20.6896552,35.8517241 L20.6896552,31.0344828 L18.3908046,31.0344828 L18.3908046,35.8517241 C18.3905991,37.788929 17.1761697,39.518181 15.354023,40.1758621 L12.6436782,41.2 L12.6436782,42.0689655 Z" id="Path" fill="#FADCB4"></path>
                    <path d="M42.3298851,43.7310345 L34.0942529,40.6183908 L24.137931,50.5747126 L14.1816092,40.6183908 L5.94597701,43.7310345 C2.36813234,45.0825529 0,48.5075827 0,52.3321839 L0,66.6666667 L48.2758621,66.6666667 L48.2758621,52.3321839 C48.2758621,48.5075827 45.9077297,45.0825529 42.3298851,43.7310345 Z" id="Path" fill="#42A5F5"></path>
                    <path d="M8.24482759,43.7310345 L14.8126437,41.2494253 L14.1816092,40.6183908 L5.94597701,43.7310345 C2.36813234,45.0825529 0.000408294209,48.5075827 0,52.3321839 L0,66.6666667 L2.29885057,66.6666667 L2.29885057,52.3321839 C2.29925887,48.5075827 4.66698292,45.0825529 8.24482759,43.7310345 L8.24482759,43.7310345 Z" id="Path" fill="#90CAF9"></path>
                    <path d="M29.8850575,29.8850575 L18.3908046,29.8850575 L18.3908046,33.4965517 C19.6579379,35.4614047 21.8018452,36.6868621 24.137931,36.7816092 C26.4736898,36.6867352 28.6173885,35.4618257 29.8850575,33.4977011 L29.8850575,29.8850575 Z" id="Path" fill="#F2BE97"></path>
                    <rect id="Rectangle" fill="#F4CDA5" x="9.1954023" y="17.2413793" width="29.8850575" height="6.89655172" rx="3.44827586"></rect>
                    <path d="M35.6321839,17.2413793 L35.6321839,23.2183908 C35.6321839,30.045977 27.9655172,35.6321839 24.137931,35.6321839 C22.2298851,35.6321839 19.3563218,34.2298851 16.954023,31.9885057 C14.3843661,29.772948 12.8280133,26.6062888 12.6436782,23.2183908 L12.6436782,17.2413793 C24.137931,16.091954 28.7356322,10.3448276 28.7356322,10.3448276 C30.3193022,13.2621463 32.7148652,15.6577093 35.6321839,17.2413793 L35.6321839,17.2413793 Z" id="Path" fill="#FADCB4"></path>
                    <path d="M14.9425287,22.9885057 L14.9425287,16.9321839 C14.2068966,17.054023 13.4482759,17.162069 12.6436782,17.2413793 L12.6436782,23.2183908 C12.8280133,26.6062888 14.3843661,29.772948 16.954023,31.9885057 C19.3563218,34.2298851 22.2298851,35.6321839 24.137931,35.6321839 C18.5486668,34.0069599 14.7665902,28.8066046 14.9425287,22.9885057 L14.9425287,22.9885057 Z" id="Path" fill="#F9E5CF"></path>
                    <path d="M24.137931,31.0413793 C22.6286923,31.0567402 21.1589057,30.5595171 19.9689655,29.6310345 L21.4103448,27.8402299 C23.0344857,29.0288801 25.2413764,29.0288801 26.8655172,27.8402299 L28.3068966,29.6310345 C27.1169564,30.5595171 25.6471698,31.0567402 24.137931,31.0413793 L24.137931,31.0413793 Z" id="Path" fill="#EAA18C"></path>
                    <path d="M18.3908046,21.8390805 C17.1264368,21.8390805 16.091954,21.0655172 16.091954,20.1149425 C16.091954,19.1643678 17.1264368,18.3908046 18.3908046,18.3908046 C19.6551724,18.3908046 20.6896552,19.1643678 20.6896552,20.1149425 C20.6896552,21.0655172 19.6551724,21.8390805 18.3908046,21.8390805 Z" id="Path" fill="#42210B"></path>
                    <path d="M29.8850575,21.8390805 C28.6206897,21.8390805 27.5862069,21.0655172 27.5862069,20.1149425 C27.5862069,19.1643678 28.6206897,18.3908046 29.8850575,18.3908046 C31.1494253,18.3908046 32.183908,19.1643678 32.183908,20.1149425 C32.183908,21.0655172 31.1494253,21.8390805 29.8850575,21.8390805 Z" id="Path" fill="#42210B"></path>
                    <path d="M11.4942529,50.5747126 C10.8594428,50.5747126 10.3448276,50.0600974 10.3448276,49.4252874 L10.3448276,41.3793103 C10.3448276,40.7445003 10.8594428,40.2298851 11.4942529,40.2298851 C12.1290629,40.2298851 12.6436782,40.7445003 12.6436782,41.3793103 L12.6436782,49.4252874 C12.6436782,50.0600974 12.1290629,50.5747126 11.4942529,50.5747126 Z" id="Path" fill="#757575"></path>
                    <path d="M12.6436782,42.0689655 L12.6436782,41.3793103 C12.6436782,40.7445003 12.1290629,40.2298851 11.4942529,40.2298851 C10.8594428,40.2298851 10.3448276,40.7445003 10.3448276,41.3793103 L10.3448276,42.9367816 L12.6436782,42.0689655 Z" id="Path" fill="#BDBDBD"></path>
                    <path d="M18.3908046,62.0689655 L16.091954,62.0689655 L16.091954,59.7701149 L17.2413793,59.7701149 L17.2413793,56.6091954 C17.3153144,53.3578867 14.7453,50.6593717 11.4942529,50.5747126 C8.24320571,50.6593717 5.6731914,53.3578867 5.74712644,56.6091954 L5.74712644,59.7701149 L6.89655172,59.7701149 L6.89655172,62.0689655 L4.59770115,62.0689655 C3.96289109,62.0689655 3.44827586,61.5543503 3.44827586,60.9195402 L3.44827586,56.6091954 C3.37523947,52.0886631 6.97394056,48.361437 11.4942529,48.2758621 C16.0145652,48.361437 19.6132663,52.0886631 19.5402299,56.6091954 L19.5402299,60.9195402 C19.5402299,61.5543503 19.0256147,62.0689655 18.3908046,62.0689655 L18.3908046,62.0689655 Z" id="Path" fill="#424242"></path>
                    <path d="M36.7816092,55.1724138 C36.1467991,55.1724138 35.6321839,54.6577986 35.6321839,54.0229885 L35.6321839,41.3793103 C35.6321839,40.7445003 36.1467991,40.2298851 36.7816092,40.2298851 C37.4164193,40.2298851 37.9310345,40.7445003 37.9310345,41.3793103 L37.9310345,54.0229885 C37.9310345,54.6577986 37.4164193,55.1724138 36.7816092,55.1724138 Z" id="Path" fill="#757575"></path>
                    <circle id="Oval" fill="#4D4D4D" cx="36.7816092" cy="57.4712644" r="3.44827586"></circle>
                    <path d="M36.7816092,62.0689655 C34.242369,62.0689655 32.183908,60.0105046 32.183908,57.4712644 C32.183908,54.9320241 34.242369,52.8735632 36.7816092,52.8735632 C39.3208494,52.8735632 41.3793103,54.9320241 41.3793103,57.4712644 C41.3793103,60.0105046 39.3208494,62.0689655 36.7816092,62.0689655 Z M36.7816092,55.1724138 C35.5119891,55.1724138 34.4827586,56.2016443 34.4827586,57.4712644 C34.4827586,58.7408845 35.5119891,59.7701149 36.7816092,59.7701149 C38.0512293,59.7701149 39.0804598,58.7408845 39.0804598,57.4712644 C39.0804598,56.2016443 38.0512293,55.1724138 36.7816092,55.1724138 Z" id="Shape" fill="#424242"></path>
                </g>
            </g>
        </g>
    </g>
</svg>