<?xml version="1.0" encoding="UTF-8"?>
<svg width="70px" height="70px" viewBox="0 0 70 70" version="1.1" xmlns="http://www.w3.org/2000/svg" xmlns:xlink="http://www.w3.org/1999/xlink">
    <!-- Generator: Sketch 64 (93537) - https://sketch.com -->
    <title>1828833</title>
    <desc>Created with Sketch.</desc>
    <g id="Page-1" stroke="none" stroke-width="1" fill="none" fill-rule="evenodd">
        <g id="서브-보호구" transform="translate(-1007.000000, -2790.000000)" fill-rule="nonzero">
            <g id="Group-32" transform="translate(938.000000, 2790.000000)">
                <g id="1828833" transform="translate(69.000000, 0.000000)">
                    <path d="M35,0 C15.7002259,0 0,15.7002259 0,35 C0,54.2997741 15.7002259,70 35,70 C54.2997741,70 70,54.2997741 70,35 C70,15.7002259 54.2997741,0 35,0 Z" id="Path" fill="#FFC107"></path>
                    <path d="M37.9164886,52.5 C37.9164886,54.1107178 36.6107178,55.4164886 35,55.4164886 C33.3892822,55.4164886 32.0835114,54.1107178 32.0835114,52.5 C32.0835114,50.8892822 33.3892822,49.5835114 35,49.5835114 C36.6107178,49.5835114 37.9164886,50.8892822 37.9164886,52.5 Z" id="Path" fill="#ECEFF1"></path>
                    <path d="M39.6169281,36.8724059 C38.5845947,37.3477173 37.9164886,38.3891296 37.9164886,39.5240021 L37.9164886,40.8335114 C37.9164886,42.443161 36.612854,43.75 35,43.75 C33.387146,43.75 32.0835114,42.443161 32.0835114,40.8335114 L32.0835114,39.5240021 C32.0835114,36.1199188 34.0840912,32.9994202 37.1730804,31.5729523 C40.145111,30.2052308 42.2914886,26.573639 42.2914886,24.7914886 C42.2914886,20.7727051 39.0219879,17.5 35,17.5 C30.9780121,17.5 27.7085114,20.7727051 27.7085114,24.7914886 C27.7085114,26.4016724 26.4043426,27.7085114 24.7914886,27.7085114 C23.1786346,27.7085114 21.875,26.4016724 21.875,24.7914886 C21.875,17.555542 27.7635192,11.6664886 35,11.6664886 C42.2364808,11.6664886 48.125,17.555542 48.125,24.7914886 C48.125,28.7322998 44.7064972,34.5246888 39.6169281,36.8724059 L39.6169281,36.8724059 Z" id="Path" fill="#FAFAFA"></path>
                </g>
            </g>
        </g>
    </g>
</svg>