<?xml version="1.0" encoding="UTF-8"?>
<svg width="81px" height="80px" viewBox="0 0 81 80" version="1.1" xmlns="http://www.w3.org/2000/svg" xmlns:xlink="http://www.w3.org/1999/xlink">
    <!-- Generator: Sketch 64 (93537) - https://sketch.com -->
    <title>Group</title>
    <desc>Created with Sketch.</desc>
    <defs>
        <rect id="path-1" x="0.127556831" y="0" width="61.4540466" height="62.2222222" rx="8"></rect>
    </defs>
    <g id="Page-1" stroke="none" stroke-width="1" fill="none" fill-rule="evenodd">
        <g id="서브-중증도" transform="translate(-684.000000, -2887.000000)">
            <g id="Group-33" transform="translate(643.500000, 2887.000000)">
                <g id="Group" transform="translate(41.000000, 0.000000)">
                    <g id="Group-2-Copy">
                        <mask id="mask-2" fill="white">
                            <use xlink:href="#path-1"></use>
                        </mask>
                        <use id="Mask" fill="#D8D8D8" xlink:href="#path-1"></use>
                        <g id="Group-2" mask="url(#mask-2)">
                            <g transform="translate(0.127557, 0.000000)">
                                <polygon id="Rectangle" fill="#2AA70E" transform="translate(15.308886, 15.526615) rotate(-270.000000) translate(-15.308886, -15.526615) " points="-0.217729146 0.217729147 30.8355008 0.217729147 30.8355008 30.8355008 -0.217729146 30.8355008"></polygon>
                                <polygon id="Rectangle-Copy" fill="#FFDD00" transform="translate(45.926658, 15.526615) rotate(-270.000000) translate(-45.926658, -15.526615) " points="30.4000425 0.217729147 61.4532725 0.217729147 61.4532725 30.8355008 30.4000425 30.8355008"></polygon>
                                <polygon id="Rectangle-Copy-2" fill="#CD2C2C" transform="translate(15.308886, 46.579845) rotate(-270.000000) translate(-15.308886, -46.579845) " points="-0.217729147 31.2709591 30.8355008 31.2709591 30.8355008 61.8887308 -0.217729147 61.8887308"></polygon>
                                <polygon id="Rectangle-Copy-3" fill="#1D1D1D" transform="translate(45.926658, 46.579845) rotate(-270.000000) translate(-45.926658, -46.579845) " points="30.4000425 31.2709591 61.4532725 31.2709591 61.4532725 61.8887308 30.4000425 61.8887308"></polygon>
                            </g>
                        </g>
                    </g>
                    <g id="1828833" transform="translate(44.444444, 44.444444)" fill-rule="nonzero">
                        <path d="M17.7777778,0 C7.97471792,0 0,7.97471792 0,17.7777778 C0,27.5808376 7.97471792,35.5555556 17.7777778,35.5555556 C27.5808376,35.5555556 35.5555556,27.5808376 35.5555556,17.7777778 C35.5555556,7.97471792 27.5808376,0 17.7777778,0 Z" id="Path" fill="#FFC107"></path>
                        <path d="M19.2591688,26.6666667 C19.2591688,27.484809 18.5959201,28.1480577 17.7777778,28.1480577 C16.9596354,28.1480577 16.2963867,27.484809 16.2963867,26.6666667 C16.2963867,25.8485243 16.9596354,25.1852756 17.7777778,25.1852756 C18.5959201,25.1852756 19.2591688,25.8485243 19.2591688,26.6666667 Z" id="Path" fill="#ECEFF1"></path>
                        <path d="M20.1228841,18.7288411 C19.5985243,18.9702691 19.2591688,19.4992404 19.2591688,20.0756836 L19.2591688,20.7408312 C19.2591688,21.558431 18.5970052,22.2222222 17.7777778,22.2222222 C16.9585503,22.2222222 16.2963867,21.558431 16.2963867,20.7408312 L16.2963867,20.0756836 C16.2963867,18.3466254 17.3125542,16.7616103 18.8815647,16.0370551 C20.3911675,15.3423394 21.481391,13.4977214 21.481391,12.5925022 C21.481391,10.5512153 19.8206923,8.88888889 17.7777778,8.88888889 C15.7348633,8.88888889 14.0741645,10.5512153 14.0741645,12.5925022 C14.0741645,13.4103733 13.4117296,14.0741645 12.5925022,14.0741645 C11.7732747,14.0741645 11.1111111,13.4103733 11.1111111,12.5925022 C11.1111111,8.91710069 14.102105,5.92583549 17.7777778,5.92583549 C21.4534506,5.92583549 24.4444444,8.91710069 24.4444444,12.5925022 C24.4444444,14.594184 22.7080621,17.5363499 20.1228841,18.7288411 L20.1228841,18.7288411 Z" id="Path" fill="#FAFAFA"></path>
                    </g>
                </g>
            </g>
        </g>
    </g>
</svg>